<?xml version="1.0" encoding="UTF-8"?>
<!-- Generated by Pixelmator Pro 3.6.17 -->
<svg width="24" height="24" viewBox="0 0 24 24" xmlns="http://www.w3.org/2000/svg">
    <path id="Trac" fill="none" stroke="#ffffff" stroke-width="1.5" stroke-linecap="round" stroke-linejoin="round" d="M 10.667 21 L 12 19.667 L 10.667 18.334"/>
    <path id="path1" fill="none" stroke="#ffffff" stroke-width="1.5" stroke-linecap="round" stroke-linejoin="round" d="M 20.889 14.006 C 21.591999 14.538 22 15.138 22 15.778 C 22 17.414 19.4 18.811001 15.722 19.386"/>
    <path id="path2" fill="none" stroke="#ffffff" stroke-width="1.5" stroke-linecap="round" stroke-linejoin="round" d="M 3.111 14.006 C 2.408 14.538 2 15.138 2 15.778 C 2 17.926001 6.477 19.667 12 19.667"/>
    <path id="path3" fill="none" stroke="#ffffff" stroke-width="1.5" stroke-linecap="round" stroke-linejoin="round" d="M 9.60001 3 L 9.60001 5.16 C 9.60001 5.556999 9.86901 5.880001 10.2 5.880001 L 13.8 5.880001 C 14.131 5.880001 14.4 5.556999 14.4 5.16 L 14.4 3"/>
    <path id="path4" fill="none" stroke="#ffffff" stroke-width="1.5" stroke-linecap="round" stroke-linejoin="round" d="M 6 15 L 6 5.4 C 6 4.073999 7.074 3 8.4 3 L 15.6 3 C 16.926001 3 18 4.073999 18 5.4 L 18 15"/>
</svg>
